<svg width="166" height="40" viewBox="0 0 166 40" fill="none" xmlns="http://www.w3.org/2000/svg">
<g clip-path="url(#clip0_2_4)">
<path d="M40.7362 3.94869C38.9738 2.87786 37.0106 2.09704 34.9136 1.67317L34.8243 2.00781C34.0881 4.88567 32.4819 7.60736 30.2287 9.83826C29.8271 10.2398 29.3809 10.6414 28.9347 10.9983C28.667 11.2214 28.377 11.4445 28.1093 11.6453C24.7184 14.1662 20.5689 15.5494 16.4417 15.5494C15.7055 15.5494 15.0139 15.3709 14.4116 15.0809C14.3224 15.0363 14.2331 14.9916 14.1662 14.947C12.783 14.1439 11.8461 12.6715 11.8461 10.9537C11.8461 9.74902 12.3815 8.65588 13.3854 7.78583C14.5678 6.75962 16.2632 6.2019 18.1595 6.2019C18.5611 6.2019 18.9849 6.2242 19.3865 6.24651C21.7066 6.44729 23.9375 7.22811 25.8784 8.54434C27.1946 6.93809 28.2209 5.10876 28.8901 3.10095C28.2432 2.67708 27.5739 2.29782 26.8823 1.96319C24.1829 0.691578 21.2158 0 18.1595 0C14.7685 0 11.623 1.09314 9.32515 3.10095C6.93809 5.15337 5.64417 7.96431 5.64417 10.976C5.64417 12.0022 5.77803 13.0061 6.06804 13.9431C7.13887 17.7579 10.2621 20.7027 14.1885 21.5282C14.9247 21.6843 15.6609 21.7736 16.4417 21.7736C21.7959 21.7736 27.1723 20.0112 31.5895 16.821C31.8349 17.8472 31.9688 18.918 31.9688 19.9888C31.9688 24.8745 29.4032 29.2025 25.5438 31.6341C24.3391 32.4149 22.9782 32.995 21.5505 33.3519C20.4796 33.6196 19.3419 33.7758 18.1818 33.7758C15.3486 33.7758 12.6269 32.9281 10.3291 31.3218C8.14278 29.8048 6.4696 27.7301 5.4657 25.2984C3.45789 25.99 1.62856 27.0608 0.044618 28.377C1.53932 31.6118 3.85945 34.3781 6.80424 36.4306C10.1729 38.773 14.0993 40 18.2041 40C21.8628 40 25.2984 39.0184 28.2432 37.2783C28.7117 37.0106 29.1801 36.6983 29.6263 36.3859C34.7574 32.7719 38.1484 26.7708 38.1484 19.9888C38.1484 17.2671 37.5906 14.5678 36.5198 12.0915C38.483 9.65979 39.9331 6.87117 40.7362 3.94869Z" fill="white"/>
<path d="M56.5086 36.4975C55.0586 36.4975 53.7646 36.2521 52.6492 35.739C51.5337 35.2482 50.6414 34.5343 49.9944 33.5973C49.3475 32.6827 48.9905 31.6118 48.9459 30.3848H53.8316C53.9208 31.0987 54.1885 31.6341 54.6347 31.9911C55.0809 32.3703 55.6832 32.5488 56.464 32.5488C57.401 32.5488 58.1149 32.3034 58.6057 31.8126C59.0965 31.3218 59.3196 30.6079 59.3196 29.6263V27.7747C58.918 28.3547 58.338 28.8232 57.6464 29.1578C56.9325 29.4925 56.1517 29.6486 55.304 29.6486C54.0323 29.6486 52.8723 29.314 51.8238 28.6447C50.7752 27.9755 49.9498 27.0608 49.3475 25.9007C48.7451 24.7407 48.4328 23.4467 48.4328 22.019C48.4328 20.5243 48.7228 19.208 49.2805 18.0703C49.8383 16.9325 50.6414 16.0178 51.623 15.3709C52.6269 14.7239 53.7646 14.3893 55.0586 14.3893C56.0625 14.3893 56.9325 14.5455 57.6687 14.8355C58.4049 15.1478 59.0965 15.6163 59.6988 16.2856V14.7239H64.3168V29.6263C64.3168 31.768 63.6252 33.4412 62.2197 34.6682C60.8589 35.8951 58.9403 36.4975 56.5086 36.4975ZM53.5416 22.0859C53.5416 23.0675 53.7869 23.8483 54.3001 24.4283C54.8132 25.0084 55.4824 25.3207 56.3302 25.3207C56.9102 25.3207 57.4233 25.1868 57.8695 24.9191C58.3157 24.6514 58.6503 24.2722 58.8957 23.7814C59.1411 23.2906 59.2527 22.7329 59.2527 22.0859C59.2527 21.1043 58.9849 20.3235 58.4495 19.7211C57.9141 19.1188 57.2002 18.8288 56.3079 18.8288C55.4601 18.8288 54.7909 19.1188 54.2777 19.7211C53.8093 20.3012 53.5416 21.1043 53.5416 22.0859Z" fill="white"/>
<path d="M72.7496 30.541H67.6631V9.41439H72.7496V30.541Z" fill="white"/>
<path d="M83.1902 30.8087C81.5616 30.8087 80.1339 30.4741 78.9069 29.7825C77.6799 29.0909 76.7206 28.1316 76.0513 26.9046C75.382 25.6776 75.0474 24.2276 75.0474 22.6213C75.0474 21.0374 75.4044 19.6319 76.0959 18.4049C76.7875 17.1779 77.7468 16.2186 78.9738 15.5047C80.2008 14.7909 81.6062 14.4562 83.1679 14.4562C84.4841 14.4562 85.6665 14.7016 86.7373 15.1924C87.7858 15.6832 88.6782 16.3748 89.3921 17.2448C90.106 18.1149 90.6191 19.1188 90.9091 20.2789C91.1991 21.4166 91.2437 22.6436 90.9983 23.9375H78.0814V20.7473H85.5996C85.5773 19.9442 85.3318 19.2973 84.8634 18.8288C84.3949 18.3603 83.7925 18.1149 83.034 18.1149C82.3871 18.1149 81.8516 18.2711 81.4278 18.6057C81.0039 18.918 80.6916 19.4311 80.4685 20.1004C80.2454 20.7697 80.1562 21.6174 80.1562 22.6213C80.1562 23.5583 80.2677 24.3614 80.4685 24.9861C80.6916 25.633 81.0039 26.1015 81.4501 26.4138C81.874 26.7262 82.4317 26.8823 83.0563 26.8823C83.7702 26.8823 84.3503 26.7262 84.8187 26.4361C85.2872 26.1461 85.6219 25.7223 85.845 25.1422H90.8645C90.3737 26.9492 89.459 28.3324 88.1205 29.314C86.8266 30.3179 85.1757 30.8087 83.1902 30.8087Z" fill="white"/>
<path d="M102.688 30.541V29.0017C102.131 29.6263 101.506 30.0948 100.77 30.3848C100.033 30.6748 99.1634 30.831 98.1595 30.831C96.5086 30.831 95.1924 30.3848 94.1662 29.4702C93.1623 28.5555 92.6492 27.3508 92.6492 25.8784C92.6492 24.3391 93.2515 23.1567 94.4785 22.3313C95.6832 21.5282 97.4233 21.1043 99.6765 21.1043C100.1 21.1043 100.524 21.1266 100.904 21.1489C101.305 21.1712 101.662 21.2158 101.997 21.2828V20.5243C101.997 19.8327 101.796 19.3196 101.417 18.9403C101.037 18.5611 100.48 18.3826 99.7881 18.3826C99.0965 18.3826 98.5611 18.5611 98.1595 18.9403C97.7579 19.3196 97.5125 19.8327 97.401 20.5243H92.8723C92.9615 19.2973 93.3185 18.2264 93.9208 17.3118C94.5231 16.3971 95.3263 15.7055 96.3525 15.1924C97.3564 14.7016 98.5164 14.4339 99.8104 14.4339C101.997 14.4339 103.692 14.9916 104.897 16.1071C106.102 17.2225 106.726 18.7842 106.726 20.792V30.5633H102.688V30.541ZM97.401 25.7223C97.401 26.2354 97.5795 26.6369 97.9141 26.9269C98.2487 27.217 98.7395 27.3731 99.3419 27.3731C100.19 27.3731 100.837 27.1946 101.305 26.8154C101.774 26.4361 102.019 25.923 102.019 25.2761V24.2722C101.64 24.1829 101.305 24.1383 100.993 24.116C100.68 24.0937 100.346 24.0714 100.033 24.0714C99.1857 24.0714 98.5388 24.2052 98.0926 24.4729C97.6241 24.763 97.401 25.1645 97.401 25.7223Z" fill="white"/>
<path d="M114.914 30.541H109.894V14.7239H114.512V16.6648C115.114 15.9509 115.784 15.4155 116.475 15.0139C117.189 14.6124 118.037 14.4339 119.063 14.4339C120.067 14.4339 120.959 14.6347 121.718 15.0586C122.499 15.4601 123.101 16.0848 123.525 16.8879C124.216 16.1294 124.93 15.527 125.711 15.1032C126.492 14.6793 127.451 14.4562 128.611 14.4562C130.173 14.4562 131.467 14.9693 132.471 15.9955C133.475 17.0217 133.965 18.4941 133.965 20.4127V30.5856H128.946V21.9297C128.946 21.0151 128.767 20.2789 128.41 19.7434C128.054 19.208 127.496 18.9403 126.782 18.9403C126.38 18.9403 125.979 19.0519 125.644 19.2526C125.31 19.4534 124.997 19.7881 124.796 20.2342C124.573 20.6804 124.462 21.2381 124.462 21.952V30.541H119.442V21.9297C119.442 21.0151 119.264 20.2789 118.907 19.7434C118.55 19.208 117.992 18.9403 117.278 18.9403C116.854 18.9403 116.453 19.0519 116.096 19.2526C115.739 19.4534 115.471 19.7881 115.248 20.2342C115.047 20.6804 114.936 21.2381 114.936 21.952V30.541H114.914Z" fill="white"/>
<path d="M144.272 30.8087C142.644 30.8087 141.216 30.4741 139.989 29.7825C138.762 29.0909 137.803 28.1316 137.133 26.9046C136.464 25.6776 136.129 24.2276 136.129 22.6213C136.129 21.0374 136.486 19.6319 137.178 18.4049C137.869 17.1779 138.829 16.2186 140.056 15.5047C141.283 14.7909 142.688 14.4562 144.25 14.4562C145.566 14.4562 146.748 14.7016 147.797 15.1924C148.846 15.6832 149.738 16.3748 150.452 17.2448C151.166 18.1149 151.679 19.1188 151.969 20.2789C152.259 21.4166 152.303 22.6436 152.058 23.9375H139.141V20.7473H146.659C146.637 19.9442 146.392 19.2973 145.923 18.8288C145.455 18.3603 144.852 18.1149 144.094 18.1149C143.447 18.1149 142.911 18.2711 142.487 18.6057C142.064 18.918 141.751 19.4311 141.528 20.1004C141.305 20.7697 141.194 21.6174 141.194 22.6213C141.194 23.5583 141.305 24.3614 141.528 24.9861C141.751 25.633 142.064 26.1015 142.51 26.4138C142.934 26.7262 143.469 26.8823 144.116 26.8823C144.83 26.8823 145.41 26.7262 145.878 26.4361C146.347 26.1461 146.682 25.7223 146.905 25.1422H151.924C151.433 26.9492 150.519 28.3324 149.18 29.314C147.909 30.3179 146.258 30.8087 144.272 30.8087Z" fill="white"/>
<path d="M159.531 23.246V30.541H154.512V14.7239H159.13V17.5125C159.732 16.5979 160.625 15.884 161.762 15.3709C162.9 14.8578 164.105 14.6124 165.354 14.6124V19.855C164.172 19.7434 163.146 19.7211 162.276 19.8104C161.405 19.8996 160.736 20.2119 160.245 20.725C159.777 21.2158 159.531 22.0636 159.531 23.246Z" fill="white"/>
</g>
<defs>
<clipPath id="clip0_2_4">
<rect width="165.354" height="40" fill="white"/>
</clipPath>
</defs>
</svg>
