<svg xmlns="http://www.w3.org/2000/svg" viewBox="0 0 100 100">
  <!-- 3 Swirl blades at 120° intervals -->
  <path fill="#00BCD4" d="M50,35 C53,24 64,11 77,10 C87,9 93,19 91,30 C89,39 81,45 73,43 C65,41 57,38 50,35Z"/>
  <path fill="#00BCD4" d="M50,35 C53,24 64,11 77,10 C87,9 93,19 91,30 C89,39 81,45 73,43 C65,41 57,38 50,35Z" transform="rotate(120 50 50)"/>
  <path fill="#00BCD4" d="M50,35 C53,24 64,11 77,10 C87,9 93,19 91,30 C89,39 81,45 73,43 C65,41 57,38 50,35Z" transform="rotate(240 50 50)"/>
  <!-- Castle: spire -->
  <polygon fill="#00BCD4" points="50,27 43,37 57,37"/>
  <!-- Tower merlons (3) -->
  <rect fill="#00BCD4" x="42" y="37" width="5" height="5"/>
  <rect fill="#00BCD4" x="48" y="37" width="4" height="5"/>
  <rect fill="#00BCD4" x="53" y="37" width="5" height="5"/>
  <!-- Tower body -->
  <rect fill="#00BCD4" x="42" y="42" width="16" height="21"/>
  <!-- Door -->
  <rect fill="white" x="46" y="53" width="8" height="10"/>
  <!-- Left wing merlons -->
  <rect fill="#00BCD4" x="28" y="45" width="5" height="5"/>
  <rect fill="#00BCD4" x="35" y="45" width="5" height="5"/>
  <!-- Left wing body -->
  <rect fill="#00BCD4" x="28" y="50" width="14" height="13"/>
  <!-- Right wing merlons -->
  <rect fill="#00BCD4" x="58" y="45" width="5" height="5"/>
  <rect fill="#00BCD4" x="65" y="45" width="5" height="5"/>
  <!-- Right wing body -->
  <rect fill="#00BCD4" x="58" y="50" width="14" height="13"/>
</svg>
