<svg width="166" height="40" viewBox="0 0 166 40" fill="none" xmlns="http://www.w3.org/2000/svg">
<g clip-path="url(#clip0_5_695)">
<path d="M40.7363 3.94869C38.9739 2.87786 37.0107 2.09704 34.9136 1.67317L34.8244 2.00781C34.0882 4.88567 32.4819 7.60736 30.2287 9.83826C29.8272 10.2398 29.381 10.6414 28.9348 10.9983C28.6671 11.2214 28.3771 11.4445 28.1094 11.6453C24.7184 14.1662 20.5689 15.5494 16.4418 15.5494C15.7056 15.5494 15.014 15.3709 14.4117 15.0809C14.3224 15.0363 14.2332 14.9916 14.1663 14.947C12.7831 14.1439 11.8461 12.6715 11.8461 10.9537C11.8461 9.74902 12.3815 8.65588 13.3854 7.78583C14.5678 6.75962 16.2633 6.2019 18.1596 6.2019C18.5611 6.2019 18.985 6.22421 19.3866 6.24651C21.7067 6.44729 23.9376 7.22811 25.8785 8.54434C27.1947 6.93809 28.2209 5.10876 28.8902 3.10095C28.2432 2.67708 27.574 2.29782 26.8824 1.96319C24.183 0.691578 21.2159 0 18.1596 0C14.7686 0 11.623 1.09314 9.32521 3.10095C6.93815 5.15337 5.64423 7.96431 5.64423 10.976C5.64423 12.0022 5.77809 13.0061 6.0681 13.9431C7.13893 17.7579 10.2622 20.7027 14.1886 21.5282C14.9248 21.6843 15.661 21.7736 16.4418 21.7736C21.7959 21.7736 27.1724 20.0112 31.5896 16.821C31.835 17.8472 31.9688 18.918 31.9688 19.9888C31.9688 24.8745 29.4033 29.2025 25.5438 31.6341C24.3392 32.4149 22.9783 32.995 21.5505 33.3519C20.4797 33.6196 19.3419 33.7758 18.1819 33.7758C15.3486 33.7758 12.6269 32.9281 10.3291 31.3218C8.14284 29.8048 6.46966 27.7301 5.46576 25.2984C3.45795 25.99 1.62862 27.0608 0.0446777 28.377C1.53938 31.6118 3.85951 34.3781 6.8043 36.4306C10.173 38.773 14.0993 40 18.2042 40C21.8629 40 25.2984 39.0184 28.2432 37.2783C28.7117 37.0106 29.1802 36.6983 29.6264 36.3859C34.7575 32.7719 38.1484 26.7708 38.1484 19.9888C38.1484 17.2671 37.5907 14.5678 36.5199 12.0915C38.4831 9.65979 39.9331 6.87117 40.7363 3.94869Z" fill="#1F2A2E"/>
<path d="M56.5086 36.4969C55.0585 36.4969 53.7646 36.2515 52.6491 35.7384C51.5337 35.2476 50.6413 34.5337 49.9944 33.5967C49.3474 32.682 48.9905 31.6112 48.9458 30.3842H53.8315C53.9207 31.0981 54.1885 31.6335 54.6346 31.9905C55.0808 32.3697 55.6832 32.5482 56.464 32.5482C57.4009 32.5482 58.1148 32.3028 58.6056 31.812C59.0964 31.3212 59.3195 30.6073 59.3195 29.6257V27.7741C58.918 28.3541 58.3379 28.8226 57.6463 29.1572C56.9325 29.4919 56.1516 29.648 55.3039 29.648C54.0323 29.648 52.8722 29.3134 51.8237 28.6441C50.7752 27.9748 49.9497 27.0602 49.3474 25.9001C48.7451 24.74 48.4327 23.4461 48.4327 22.0183C48.4327 20.5236 48.7228 19.2074 49.2805 18.0697C49.8382 16.9319 50.6413 16.0172 51.6229 15.3703C52.6268 14.7233 53.7646 14.3887 55.0585 14.3887C56.0624 14.3887 56.9325 14.5448 57.6687 14.8349C58.4049 15.1472 59.0964 15.6157 59.6988 16.2849V14.7233H64.3167V29.6257C64.3167 31.7674 63.6252 33.4405 62.2197 34.6675C60.8588 35.8945 58.9403 36.4969 56.5086 36.4969ZM53.5415 22.0853C53.5415 23.0669 53.7869 23.8477 54.3 24.4277C54.8131 25.0077 55.4824 25.3201 56.3301 25.3201C56.9102 25.3201 57.4233 25.1862 57.8694 24.9185C58.3156 24.6508 58.6503 24.2715 58.8956 23.7808C59.141 23.29 59.2526 22.7322 59.2526 22.0853C59.2526 21.1037 58.9849 20.3229 58.4495 19.7205C57.9141 19.1182 57.2002 18.8282 56.3078 18.8282C55.4601 18.8282 54.7908 19.1182 54.2777 19.7205C53.8092 20.3006 53.5415 21.1037 53.5415 22.0853Z" fill="#1F2A2E"/>
<path d="M72.7495 30.5407H67.6631V9.41406H72.7495V30.5407Z" fill="#1F2A2E"/>
<path d="M83.1901 30.8085C81.5616 30.8085 80.1338 30.4739 78.9068 29.7823C77.6798 29.0907 76.7205 28.1315 76.0513 26.9045C75.382 25.6775 75.0474 24.2274 75.0474 22.6211C75.0474 21.0372 75.4043 19.6317 76.0959 18.4047C76.7875 17.1777 77.7468 16.2185 78.9737 15.5046C80.2007 14.7907 81.6062 14.4561 83.1678 14.4561C84.4841 14.4561 85.6664 14.7015 86.7373 15.1922C87.7858 15.683 88.6782 16.3746 89.392 17.2447C90.1059 18.1147 90.619 19.1186 90.909 20.2787C91.1991 21.4165 91.2437 22.6434 90.9983 23.9374H78.0814V20.7472H85.5995C85.5772 19.9441 85.3318 19.2971 84.8633 18.8286C84.3948 18.3601 83.7925 18.1147 83.034 18.1147C82.387 18.1147 81.8516 18.2709 81.4277 18.6055C81.0039 18.9179 80.6915 19.431 80.4684 20.1002C80.2454 20.7695 80.1561 21.6172 80.1561 22.6211C80.1561 23.5581 80.2677 24.3612 80.4684 24.9859C80.6915 25.6329 81.0039 26.1013 81.45 26.4137C81.8739 26.726 82.4316 26.8822 83.0563 26.8822C83.7702 26.8822 84.3502 26.726 84.8187 26.436C85.2872 26.146 85.6218 25.7221 85.8449 25.1421H90.8644C90.3736 26.9491 89.459 28.3322 88.1204 29.3138C86.8265 30.3177 85.1756 30.8085 83.1901 30.8085Z" fill="#1F2A2E"/>
<path d="M102.688 30.5407V29.0014C102.13 29.626 101.506 30.0945 100.77 30.3845C100.033 30.6745 99.1634 30.8307 98.1595 30.8307C96.5086 30.8307 95.1924 30.3845 94.1662 29.4698C93.1623 28.5552 92.6492 27.3505 92.6492 25.8781C92.6492 24.3388 93.2515 23.1564 94.4785 22.331C95.6832 21.5278 97.4233 21.104 99.6765 21.104C100.1 21.104 100.524 21.1263 100.903 21.1486C101.305 21.1709 101.662 21.2155 101.997 21.2825V20.5239C101.997 19.8324 101.796 19.3193 101.417 18.94C101.037 18.5608 100.48 18.3823 99.788 18.3823C99.0965 18.3823 98.5611 18.5608 98.1595 18.94C97.7579 19.3193 97.5125 19.8324 97.401 20.5239H92.8723C92.9615 19.297 93.3184 18.2261 93.9208 17.3115C94.5231 16.3968 95.3262 15.7052 96.3525 15.1921C97.3564 14.7013 98.5164 14.4336 99.8104 14.4336C101.997 14.4336 103.692 14.9913 104.897 16.1068C106.101 17.2222 106.726 18.7838 106.726 20.7917V30.563H102.688V30.5407ZM97.401 25.7219C97.401 26.235 97.5795 26.6366 97.9141 26.9266C98.2487 27.2166 98.7395 27.3728 99.3419 27.3728C100.19 27.3728 100.837 27.1943 101.305 26.8151C101.774 26.4358 102.019 25.9227 102.019 25.2758V24.2719C101.64 24.1826 101.305 24.138 100.993 24.1157C100.68 24.0934 100.346 24.0711 100.033 24.0711C99.1857 24.0711 98.5387 24.2049 98.0926 24.4726C97.6241 24.7627 97.401 25.1642 97.401 25.7219Z" fill="#1F2A2E"/>
<path d="M114.913 30.5407H109.894V14.7236H114.512V16.6645C115.114 15.9506 115.783 15.4152 116.475 15.0136C117.189 14.6121 118.037 14.4336 119.063 14.4336C120.067 14.4336 120.959 14.6344 121.718 15.0582C122.498 15.4598 123.101 16.0845 123.525 16.8876C124.216 16.1291 124.93 15.5267 125.711 15.1029C126.492 14.679 127.451 14.4559 128.611 14.4559C130.173 14.4559 131.467 14.969 132.471 15.9952C133.475 17.0214 133.965 18.4938 133.965 20.4124V30.5853H128.946V21.9294C128.946 21.0147 128.767 20.2785 128.41 19.7431C128.053 19.2077 127.496 18.94 126.782 18.94C126.38 18.94 125.979 19.0516 125.644 19.2523C125.309 19.4531 124.997 19.7877 124.796 20.2339C124.573 20.6801 124.462 21.2378 124.462 21.9517V30.5407H119.442V21.9294C119.442 21.0147 119.264 20.2785 118.907 19.7431C118.55 19.2077 117.992 18.94 117.278 18.94C116.854 18.94 116.453 19.0516 116.096 19.2523C115.739 19.4531 115.471 19.7877 115.248 20.2339C115.047 20.6801 114.936 21.2378 114.936 21.9517V30.5407H114.913Z" fill="#1F2A2E"/>
<path d="M144.272 30.8085C142.644 30.8085 141.216 30.4739 139.989 29.7823C138.762 29.0907 137.803 28.1315 137.133 26.9045C136.464 25.6775 136.129 24.2274 136.129 22.6211C136.129 21.0372 136.486 19.6317 137.178 18.4047C137.869 17.1777 138.829 16.2185 140.056 15.5046C141.283 14.7907 142.688 14.4561 144.25 14.4561C145.566 14.4561 146.748 14.7015 147.797 15.1922C148.846 15.683 149.738 16.3746 150.452 17.2447C151.166 18.1147 151.679 19.1186 151.969 20.2787C152.259 21.4165 152.303 22.6434 152.058 23.9374H139.141V20.7472H146.659C146.637 19.9441 146.392 19.2971 145.923 18.8286C145.455 18.3601 144.852 18.1147 144.094 18.1147C143.447 18.1147 142.911 18.2709 142.487 18.6055C142.064 18.9179 141.751 19.431 141.528 20.1002C141.305 20.7695 141.194 21.6172 141.194 22.6211C141.194 23.5581 141.305 24.3612 141.528 24.9859C141.751 25.6329 142.064 26.1013 142.51 26.4137C142.934 26.726 143.469 26.8822 144.116 26.8822C144.83 26.8822 145.41 26.726 145.878 26.436C146.347 26.146 146.682 25.7221 146.905 25.1421H151.924C151.433 26.9491 150.519 28.3322 149.18 29.3138C147.909 30.3177 146.258 30.8085 144.272 30.8085Z" fill="#1F2A2E"/>
<path d="M159.531 23.2459V30.5409H154.512V14.7238H159.13V17.5125C159.732 16.5978 160.625 15.8839 161.762 15.3708C162.9 14.8577 164.105 14.6123 165.354 14.6123V19.8549C164.172 19.7434 163.146 19.7211 162.275 19.8103C161.405 19.8995 160.736 20.2119 160.245 20.725C159.777 21.2158 159.531 22.0635 159.531 23.2459Z" fill="#1F2A2E"/>
</g>
<defs>
<clipPath id="clip0_5_695">
<rect width="165.354" height="40" fill="white"/>
</clipPath>
</defs>
</svg>
