<svg width="41" height="41" viewBox="0 0 41 41" fill="none" xmlns="http://www.w3.org/2000/svg">
<path d="M34.8977 25.2591L27.5367 21.9606L27.5164 21.9512C27.1343 21.7878 26.7174 21.7222 26.3036 21.7604C25.8897 21.7986 25.4919 21.9394 25.1461 22.17C25.1054 22.1969 25.0663 22.2261 25.0289 22.2575L21.2258 25.4997C18.8164 24.3294 16.3289 21.8606 15.1586 19.4825L18.4055 15.6216C18.4367 15.5825 18.4664 15.5434 18.4945 15.5012C18.7202 15.1564 18.8571 14.7611 18.8931 14.3506C18.9291 13.94 18.863 13.527 18.7008 13.1481V13.1294L15.393 5.75593C15.1785 5.26103 14.8097 4.84877 14.3417 4.58068C13.8737 4.31259 13.3315 4.20306 12.7961 4.26843C10.6789 4.54704 8.73545 5.58682 7.32882 7.19358C5.92218 8.80034 5.14853 10.8642 5.15236 12.9997C5.15236 25.4059 15.2461 35.4997 27.6524 35.4997C29.7878 35.5035 31.8517 34.7299 33.4585 33.3232C35.0652 31.9166 36.105 29.9732 36.3836 27.8559C36.4491 27.3207 36.3398 26.7787 36.072 26.3107C35.8042 25.8427 35.3923 25.4738 34.8977 25.2591ZM27.6524 32.9997C22.3498 32.9939 17.2661 30.8849 13.5166 27.1354C9.76714 23.386 7.65815 18.3022 7.65236 12.9997C7.64648 11.4739 8.19619 9.99811 9.19882 8.84798C10.2015 7.69784 11.5885 6.95197 13.1008 6.74968C13.1002 6.75592 13.1002 6.7622 13.1008 6.76843L16.382 14.1122L13.1524 17.9778C13.1196 18.0155 13.0898 18.0558 13.0633 18.0981C12.8282 18.4589 12.6902 18.8744 12.6628 19.3042C12.6355 19.7339 12.7196 20.1635 12.907 20.5512C14.3227 23.4466 17.2399 26.3419 20.1664 27.7559C20.557 27.9416 20.9891 28.0228 21.4204 27.9916C21.8517 27.9604 22.2676 27.8178 22.6274 27.5778C22.6675 27.5508 22.7061 27.5216 22.743 27.4903L26.5414 24.2497L33.8852 27.5387C33.8852 27.5387 33.8977 27.5387 33.9024 27.5387C33.7025 29.0532 32.9578 30.443 31.8074 31.4481C30.6571 32.4533 29.18 33.0048 27.6524 32.9997Z" fill="#1F2A2E"/>
</svg>
