<svg width="41" height="40" viewBox="0 0 41 40" fill="none" xmlns="http://www.w3.org/2000/svg">
<path d="M35.1523 7.5H5.15234C4.82082 7.5 4.50288 7.6317 4.26846 7.86612C4.03404 8.10054 3.90234 8.41848 3.90234 8.75V30C3.90234 30.663 4.16574 31.2989 4.63458 31.7678C5.10342 32.2366 5.7393 32.5 6.40234 32.5H33.9023C34.5654 32.5 35.2013 32.2366 35.6701 31.7678C36.139 31.2989 36.4023 30.663 36.4023 30V8.75C36.4023 8.41848 36.2706 8.10054 36.0362 7.86612C35.8018 7.6317 35.4839 7.5 35.1523 7.5ZM31.9383 10L20.1523 20.8047L8.36641 10H31.9383ZM33.9023 30H6.40234V11.5922L19.307 23.4219C19.5376 23.6336 19.8393 23.751 20.1523 23.751C20.4654 23.751 20.767 23.6336 20.9977 23.4219L33.9023 11.5922V30Z" fill="#1F2A2E"/>
</svg>
