<svg width="41" height="40" viewBox="0 0 41 40" fill="none" xmlns="http://www.w3.org/2000/svg">
<path d="M31.4023 35H23.6742C24.9724 33.8408 26.1967 32.6014 27.3398 31.2891C31.6289 26.3563 33.9023 21.1562 33.9023 16.25C33.9023 12.6033 32.4537 9.10591 29.8751 6.52728C27.2964 3.94866 23.7991 2.5 20.1523 2.5C16.5056 2.5 13.0083 3.94866 10.4296 6.52728C7.851 9.10591 6.40234 12.6033 6.40234 16.25C6.40234 21.1562 8.66953 26.3563 12.9648 31.2891C14.108 32.6014 15.3323 33.8408 16.6305 35H8.90234C8.57082 35 8.25288 35.1317 8.01846 35.3661C7.78404 35.6005 7.65234 35.9185 7.65234 36.25C7.65234 36.5815 7.78404 36.8995 8.01846 37.1339C8.25288 37.3683 8.57082 37.5 8.90234 37.5H31.4023C31.7339 37.5 32.0518 37.3683 32.2862 37.1339C32.5206 36.8995 32.6523 36.5815 32.6523 36.25C32.6523 35.9185 32.5206 35.6005 32.2862 35.3661C32.0518 35.1317 31.7339 35 31.4023 35ZM8.90234 16.25C8.90234 13.2663 10.0876 10.4048 12.1974 8.29505C14.3072 6.18526 17.1687 5 20.1523 5C23.136 5 25.9975 6.18526 28.1073 8.29505C30.2171 10.4048 31.4023 13.2663 31.4023 16.25C31.4023 25.1922 22.7352 32.6562 20.1523 34.6875C17.5695 32.6562 8.90234 25.1922 8.90234 16.25ZM26.4023 16.25C26.4023 15.0139 26.0358 13.8055 25.349 12.7777C24.6623 11.7499 23.6862 10.9488 22.5441 10.4758C21.4021 10.0027 20.1454 9.87893 18.933 10.1201C17.7206 10.3612 16.607 10.9565 15.7329 11.8306C14.8588 12.7047 14.2636 13.8183 14.0224 15.0307C13.7813 16.2431 13.905 17.4997 14.3781 18.6418C14.8511 19.7838 15.6522 20.7599 16.68 21.4467C17.7078 22.1334 18.9162 22.5 20.1523 22.5C21.8099 22.5 23.3997 21.8415 24.5718 20.6694C25.7439 19.4973 26.4023 17.9076 26.4023 16.25ZM16.4023 16.25C16.4023 15.5083 16.6223 14.7833 17.0343 14.1666C17.4464 13.5499 18.0321 13.0693 18.7173 12.7855C19.4025 12.5016 20.1565 12.4274 20.8839 12.5721C21.6114 12.7167 22.2795 13.0739 22.804 13.5983C23.3284 14.1228 23.6856 14.791 23.8303 15.5184C23.975 16.2458 23.9007 16.9998 23.6169 17.6851C23.3331 18.3703 22.8524 18.956 22.2357 19.368C21.619 19.7801 20.894 20 20.1523 20C19.1578 20 18.204 19.6049 17.5007 18.9017C16.7974 18.1984 16.4023 17.2446 16.4023 16.25Z" fill="#1F2A2E"/>
</svg>
