<svg width="48" height="49" viewBox="0 0 48 49" fill="none" xmlns="http://www.w3.org/2000/svg">
<rect y="0.5" width="48" height="48" rx="6" fill="#F4F3EE"/>
<path d="M18.96 18.476V19.46H23.04C27.456 19.46 28.392 19.652 29.136 20.684C29.352 20.996 29.52 21.332 29.52 21.404C29.52 21.5 27.6 21.62 25.272 21.668C21.072 21.74 20.976 21.764 19.44 22.484C17.64 23.348 16.224 24.668 15.288 26.348C14.64 27.572 13.92 29.948 13.92 30.908V31.46H24.024H34.152L33.984 29.42C33.744 26.54 33.048 24.02 31.728 21.38C30.816 19.556 30.384 18.956 29.568 18.38L28.512 17.66L23.736 17.588L18.96 17.516V18.476ZM30.792 24.476C31.32 25.748 31.92 28.172 31.92 28.916V29.54H24.12C15.552 29.54 16.008 29.636 16.656 28.076C17.208 26.78 18.36 25.34 19.32 24.74C20.904 23.756 21.984 23.564 26.304 23.564L30.432 23.54L30.792 24.476Z" fill="#1F2A2E"/>
</svg>
