<svg width="48" height="49" viewBox="0 0 48 49" fill="none" xmlns="http://www.w3.org/2000/svg">
<rect y="0.5" width="48" height="48" rx="6" fill="#F4F3EE"/>
<path d="M14.088 14.564C13.992 14.66 13.92 15.116 13.92 15.572C13.92 16.172 14.04 16.412 14.376 16.508C14.76 16.604 14.832 16.94 14.928 19.076C15.072 21.644 15.36 22.532 16.368 23.468C17.328 24.38 18.12 24.5 22.584 24.5H26.88V25.436C26.88 26.18 26.784 26.396 26.376 26.492C25.968 26.612 25.896 26.78 25.968 27.548L26.04 28.46H30H33.96L34.032 27.548C34.104 26.804 34.032 26.588 33.648 26.492C33.24 26.396 33.168 26.084 33.072 23.924C32.928 21.356 32.64 20.468 31.632 19.532C30.672 18.62 29.88 18.5 25.416 18.5H21.12V17.564C21.12 16.82 21.216 16.604 21.624 16.508C22.032 16.388 22.104 16.22 22.032 15.452L21.96 14.54L18.096 14.468C15.984 14.444 14.184 14.492 14.088 14.564ZM18.96 18.5V20.42H21H23.04V21.524V22.628L20.664 22.532C18.528 22.46 18.216 22.388 17.664 21.884C17.064 21.332 17.04 21.164 17.04 18.932V16.58H18H18.96V18.5ZM30.336 21.116C30.936 21.668 30.96 21.836 30.96 24.068V26.42H30H29.04V24.5V22.58H27H24.96V21.476V20.372L27.336 20.468C29.472 20.54 29.784 20.612 30.336 21.116Z" fill="#1F2A2E"/>
<path d="M28.9441 30.7156C27.9601 32.0596 27.8401 33.0196 28.5601 33.8116C29.8081 35.1316 31.8961 34.3636 31.9201 32.5636C31.9201 31.8916 30.4321 29.5396 30.0001 29.5396C29.8801 29.5396 29.4241 30.0676 28.9441 30.7156Z" fill="#1F2A2E"/>
</svg>
