<svg width="48" height="49" viewBox="0 0 48 49" fill="none" xmlns="http://www.w3.org/2000/svg">
<rect y="0.5" width="48" height="48" rx="6" fill="#F4F3EE"/>
<path d="M13.92 16.58C13.92 17.372 13.992 17.54 14.4 17.54C14.856 17.54 14.88 17.732 14.928 25.508L15 33.5H18H21L20.928 31.82C20.88 30.884 20.688 29.516 20.472 28.772C20.112 27.452 20.136 27.308 20.736 24.932C21.432 22.148 21.84 19.772 21.84 18.428V17.54H24H26.16V18.428C26.16 19.772 26.568 22.148 27.264 24.932C27.864 27.308 27.888 27.452 27.528 28.772C27.312 29.516 27.12 30.884 27.072 31.82L27 33.5H30H33L33.072 25.508C33.12 17.732 33.144 17.54 33.6 17.54C34.008 17.54 34.08 17.372 34.08 16.58V15.62H24H13.92V16.58ZM19.824 19.028C19.656 20.492 18.552 25.892 18.312 26.228C18.264 26.348 17.952 26.42 17.616 26.42H17.04V21.98V17.54H18.504H19.992L19.824 19.028ZM30.96 21.98V26.42H30.384C30.048 26.42 29.736 26.348 29.688 26.228C29.448 25.892 28.344 20.492 28.176 19.028L28.008 17.54H29.496H30.96V21.98ZM18.36 28.868C18.432 29.036 18.576 29.684 18.696 30.308L18.888 31.46H17.976H17.04V30.02C17.04 28.628 17.064 28.58 17.64 28.58C17.976 28.58 18.312 28.724 18.36 28.868ZM30.96 30.02V31.46H30.024H29.112L29.304 30.308C29.616 28.7 29.688 28.58 30.36 28.58C30.936 28.58 30.96 28.628 30.96 30.02Z" fill="#1F2A2E"/>
</svg>
