<svg width="48" height="49" viewBox="0 0 48 49" fill="none" xmlns="http://www.w3.org/2000/svg">
<rect y="0.5" width="48" height="48" rx="6" fill="#F4F3EE"/>
<path d="M19.92 17.8277V20.9957L18.648 19.7477L17.376 18.4997L16.68 19.2197L15.984 19.9397L17.952 21.9317L19.92 23.8997V27.6917V31.4597L19.296 31.6997C17.976 32.2037 18 32.2517 18 28.2197V24.4997H17.04H16.08V25.6997C16.08 26.3477 16.008 26.8997 15.912 26.8997C15.816 26.8997 15.432 26.6117 15.072 26.2517L14.4 25.6037L13.752 26.2517L13.104 26.8997L14.592 28.4117C16.032 29.8517 16.08 29.9477 16.08 31.1477V32.3957L15.048 32.4677C14.088 32.5397 14.04 32.5877 13.968 33.3557C13.92 33.7877 13.992 34.2677 14.112 34.3877C14.472 34.7477 18.168 34.1717 20.64 33.3557C23.832 32.3237 25.608 32.2997 28.44 33.3077C30.816 34.1477 33.6 34.6757 33.912 34.3637C34.032 34.2437 34.08 33.7877 34.032 33.3557C33.96 32.6117 33.888 32.5397 33 32.4197L32.04 32.2997L31.968 31.1237C31.896 29.9717 31.92 29.9237 33.408 28.4117L34.896 26.8997L34.248 26.2517L33.6 25.6037L32.928 26.2517C32.568 26.6117 32.184 26.8997 32.088 26.8997C31.992 26.8997 31.92 26.1317 31.92 25.2197V23.5397H30.96H30V27.6437C30 31.2917 29.952 31.7237 29.616 31.6037C29.4 31.5317 28.968 31.3877 28.656 31.3157L28.08 31.1717V27.0677V22.9637L29.52 21.4997L30.96 20.0357L30.24 19.3397L29.52 18.6437L28.8 19.3397L28.104 20.0117L28.032 18.2597L27.96 16.4837L24.36 15.5717C22.392 15.0917 20.568 14.6597 20.352 14.6597C19.968 14.6597 19.92 14.9717 19.92 17.8277ZM24 17.5396C24.6 17.6837 25.272 17.8517 25.512 17.9237C25.896 18.0437 25.92 18.5477 25.92 24.2837V30.4997H24.912C24.336 30.4997 23.472 30.5717 22.992 30.6437L22.08 30.8117V23.9237C22.08 17.4676 22.104 17.0357 22.512 17.1557C22.728 17.2277 23.4 17.3957 24 17.5396Z" fill="#1F2A2E"/>
</svg>
