<svg width="15" height="18" viewBox="0 0 15 18" fill="none" xmlns="http://www.w3.org/2000/svg">
<g clip-path="url(#clip0_5_787)">
<path d="M7.52333 5.18159C5.41161 5.18159 3.70829 6.88491 3.70829 8.99663C3.70829 11.1083 5.41161 12.8117 7.52333 12.8117C9.63505 12.8117 11.3384 11.1083 11.3384 8.99663C11.3384 6.88491 9.63505 5.18159 7.52333 5.18159ZM7.52333 11.4769C6.15868 11.4769 5.04305 10.3646 5.04305 8.99663C5.04305 7.62866 6.15536 6.51636 7.52333 6.51636C8.8913 6.51636 10.0036 7.62866 10.0036 8.99663C10.0036 10.3646 8.88798 11.4769 7.52333 11.4769ZM12.3843 5.02554C12.3843 5.52026 11.9858 5.91538 11.4944 5.91538C10.9997 5.91538 10.6046 5.51694 10.6046 5.02554C10.6046 4.53413 11.003 4.13569 11.4944 4.13569C11.9858 4.13569 12.3843 4.53413 12.3843 5.02554ZM14.911 5.92866C14.8546 4.73667 14.5823 3.68081 13.7091 2.81089C12.8391 1.94097 11.7833 1.6687 10.5913 1.60894C9.36278 1.53921 5.68055 1.53921 4.45204 1.60894C3.26337 1.66538 2.20751 1.93765 1.33427 2.80757C0.461023 3.67749 0.192078 4.73335 0.132312 5.92534C0.0625855 7.15386 0.0625855 10.8361 0.132312 12.0646C0.188757 13.2566 0.461023 14.3125 1.33427 15.1824C2.20751 16.0523 3.26005 16.3246 4.45204 16.3843C5.68055 16.4541 9.36278 16.4541 10.5913 16.3843C11.7833 16.3279 12.8391 16.0556 13.7091 15.1824C14.579 14.3125 14.8513 13.2566 14.911 12.0646C14.9808 10.8361 14.9808 7.15718 14.911 5.92866ZM13.3239 13.3828C13.0649 14.0335 12.5636 14.5349 11.9095 14.7972C10.93 15.1857 8.60575 15.096 7.52333 15.096C6.44091 15.096 4.11337 15.1824 3.13719 14.7972C2.48641 14.5382 1.98505 14.0369 1.72274 13.3828C1.33427 12.4033 1.42391 10.0791 1.42391 8.99663C1.42391 7.91421 1.33759 5.58667 1.72274 4.6105C1.98173 3.95972 2.48309 3.45835 3.13719 3.19604C4.11669 2.80757 6.44091 2.89722 7.52333 2.89722C8.60575 2.89722 10.9333 2.81089 11.9095 3.19604C12.5602 3.45503 13.0616 3.9564 13.3239 4.6105C13.7124 5.58999 13.6227 7.91421 13.6227 8.99663C13.6227 10.0791 13.7124 12.4066 13.3239 13.3828Z" fill="#1F2A2E"/>
</g>
<defs>
<clipPath id="clip0_5_787">
<rect width="14.96" height="17" fill="white" transform="translate(0.0400085 0.5)"/>
</clipPath>
</defs>
</svg>
