<svg width="24" height="24" viewBox="0 0 24 24" fill="none" xmlns="http://www.w3.org/2000/svg">
<path d="M20.8472 14.8556L16.4306 12.8766L16.4184 12.8709C16.1892 12.7729 15.939 12.7335 15.6907 12.7564C15.4424 12.7794 15.2037 12.8638 14.9963 13.0022C14.9718 13.0183 14.9483 13.0359 14.9259 13.0547L12.6441 15C11.1984 14.2978 9.70594 12.8166 9.00375 11.3897L10.9519 9.07313C10.9706 9.04969 10.9884 9.02625 11.0053 9.00094C11.1407 8.79403 11.2229 8.55686 11.2445 8.31054C11.266 8.06421 11.2264 7.81637 11.1291 7.58906V7.57781L9.14438 3.15375C9.01569 2.85681 8.79443 2.60945 8.51361 2.4486C8.2328 2.28775 7.90749 2.22203 7.58625 2.26125C6.31591 2.42841 5.14986 3.05228 4.30587 4.01634C3.46189 4.9804 2.9977 6.21871 3 7.5C3 14.9438 9.05625 21 16.5 21C17.7813 21.0023 19.0196 20.5381 19.9837 19.6941C20.9477 18.8501 21.5716 17.6841 21.7388 16.4138C21.778 16.0926 21.7125 15.7674 21.5518 15.4866C21.3911 15.2058 21.144 14.9845 20.8472 14.8556ZM16.5 19.5C13.3185 19.4965 10.2682 18.2311 8.01856 15.9814C5.76887 13.7318 4.50347 10.6815 4.5 7.5C4.49647 6.58452 4.8263 5.69906 5.42788 5.00898C6.02946 4.31889 6.86166 3.87138 7.76906 3.75C7.76869 3.75374 7.76869 3.75751 7.76906 3.76125L9.73781 8.1675L7.8 10.4869C7.78033 10.5095 7.76246 10.5336 7.74656 10.5591C7.60548 10.7755 7.52272 11.0248 7.5063 11.2827C7.48987 11.5406 7.54034 11.7983 7.65281 12.0309C8.50219 13.7681 10.2525 15.5053 12.0084 16.3538C12.2428 16.4652 12.502 16.5139 12.7608 16.4952C13.0196 16.4764 13.2691 16.3909 13.485 16.2469C13.5091 16.2307 13.5322 16.2131 13.5544 16.1944L15.8334 14.25L20.2397 16.2234C20.2397 16.2234 20.2472 16.2234 20.25 16.2234C20.1301 17.1321 19.6833 17.966 18.993 18.5691C18.3028 19.1721 17.4166 19.5031 16.5 19.5Z" fill="white"/>
</svg>
