<svg width="49" height="48" viewBox="0 0 49 48" fill="none" xmlns="http://www.w3.org/2000/svg">
<g clip-path="url(#clip0_4_317)">
<path d="M41.0322 19.1848C40.1309 18.3607 38.9979 17.9745 37.7876 18.0002C36.5773 18.0517 35.47 18.5925 34.6459 19.468L29.8305 24.7728C29.0064 23.408 27.5129 22.5067 25.7876 22.5067H12.5C9.17811 22.5067 6.5 25.2105 6.5 28.5067V36.0002C6.5 39.3221 9.20386 42.0002 12.5 42.0002H19.9421C24.2167 42.0002 28.2854 40.1719 31.1438 36.9788L41.3412 25.5195C42.9893 23.6912 42.8348 20.8328 41.0064 19.1848H41.0322Z" fill="#1F2A2E"/>
<path d="M39.1266 23.5363L28.9291 34.9955C26.663 37.5449 23.3926 39.0127 19.9678 39.0127H12.5257C10.8776 39.0127 9.51282 37.6736 9.51282 35.9998V28.5063C9.51282 26.8582 10.8519 25.4934 12.5257 25.4934H25.8132C26.766 25.4934 27.5386 26.2659 27.5386 27.2187C27.5386 28.1715 26.8948 28.7895 26.0708 28.9183L18.3197 30.0256C17.4956 30.1543 16.9291 30.9011 17.0579 31.7251C17.1866 32.5492 17.9334 33.1157 18.7575 32.9869L26.5085 31.8796C28.2596 31.6221 29.7017 30.3861 30.2939 28.7895L36.9377 21.502C37.221 21.193 37.5815 21.0384 37.9935 21.0127C38.4055 21.0127 38.7918 21.1415 39.075 21.399C39.6931 21.9655 39.7446 22.9183 39.1781 23.5363H39.1266Z" fill="#72DEFF"/>
<path d="M19.2468 17.9998C20.6373 17.9998 21.9764 17.459 22.9549 16.4548C25.015 14.3947 24.9892 11.0728 22.9549 9.0127L20.3025 6.43759C19.7103 5.87106 18.7832 5.87106 18.2167 6.43759L15.5644 9.03845C13.5043 11.0728 13.5043 14.4204 15.5644 16.4548C16.5686 17.459 17.8819 17.9998 19.2725 17.9998H19.2468Z" fill="#1F2A2E"/>
<path d="M17.6502 11.1763L19.2467 9.60547L20.8433 11.1505C21.7189 12.0261 21.7189 13.4681 20.8433 14.3437C19.9935 15.1935 18.5 15.1935 17.6502 14.3437C16.7746 13.4681 16.7746 12.0261 17.6502 11.1763Z" fill="#72DEFF"/>
</g>
<defs>
<clipPath id="clip0_4_317">
<rect width="36" height="36" fill="white" transform="translate(6.5 6)"/>
</clipPath>
</defs>
</svg>
