<svg width="49" height="48" viewBox="0 0 49 48" fill="none" xmlns="http://www.w3.org/2000/svg">
<g clip-path="url(#clip0_4_347)">
<path d="M33.5001 19.6C33.5001 19 33.4001 18.4 33.1001 17.8C32.9001 17.2 32.5001 16.7 32.1001 16.3C31.2001 15.5 30.1001 15 28.8001 15C27.5001 15 26.4001 15.5 25.5001 16.3L7.90006 34.2C7.10006 35.1 6.60006 36.2 6.70006 37.4C6.70006 38.6 7.20006 39.7 8.00006 40.6C8.80006 41.4 10.0001 41.9 11.2001 41.9C12.4001 41.9 13.5001 41.5 14.4001 40.7L32.2001 22.9C32.6001 22.5 33.0001 22 33.2001 21.4C33.4001 20.8 33.6001 20.2 33.5001 19.6Z" fill="#1F2A2E"/>
<path d="M12.2 38.4996C11.9 38.7996 11.5 38.9996 11.1 38.9996C10.7 38.9996 10.3 38.7996 10 38.4996C9.7 38.1996 9.5 37.7996 9.5 37.3996C9.5 36.9996 9.7 36.5996 10 36.2996L21.7 24.5996L24 26.8996L12.3 38.4996H12.2Z" fill="#72DEFF"/>
<path d="M30 20.6998L26 24.6998L23.8 22.3998L27.8 18.3998C27.9 18.1998 28.1 18.0998 28.3 17.9998C28.5 17.9998 28.7 17.8998 28.9 17.7998C29.1 17.7998 29.3 17.7998 29.5 17.8998C29.7 17.8998 29.9 18.0998 30 18.2998C30.2 18.4998 30.3 18.5998 30.4 18.7998C30.4 18.9998 30.5 19.1998 30.5 19.3998C30.5 19.5998 30.5 19.7998 30.3 19.9998C30.1 20.1998 30.1 20.3998 29.9 20.4998L30 20.6998Z" fill="#72DEFF"/>
<path d="M13.8 10.3L16.1 9.6L16.8 7.3C16.9 6.9 17.1 6.6 17.4 6.4C17.7 6.2 18.1 6 18.5 6C18.9 6 19.3 6.1 19.6 6.4C19.9 6.6 20.1 7 20.2 7.3L20.9 9.6L23.2 10.3C23.6 10.4 23.9 10.6 24.1 10.9C24.3 11.2 24.5 11.6 24.5 12C24.5 12.4 24.4 12.8 24.1 13.1C23.8 13.4 23.5 13.6 23.2 13.7L20.9 14.4L20.2 16.7C20.1 17.1 19.9 17.4 19.6 17.6C19.3 17.8 18.9 18 18.5 18C18.1 18 17.7 17.9 17.4 17.6C17.1 17.4 16.9 17 16.8 16.7L16.1 14.4L13.8 13.7C13.4 13.6 13.1 13.4 12.9 13.1C12.7 12.8 12.5 12.4 12.5 12C12.5 11.6 12.6 11.2 12.9 10.9C13.1 10.6 13.5 10.4 13.8 10.3Z" fill="#1F2A2E"/>
<path d="M41.2 31.7L38.9 32.4L38.2 34.7C38.1 35.1 37.9 35.4 37.6 35.6C37.3 35.8 36.9 36 36.5 36C36.1 36 35.7 35.9 35.4 35.6C35.1 35.4 34.9 35 34.8 34.7L34.1 32.4L31.8 31.7C31.4 31.6 31.1 31.4 30.9 31.1C30.7 30.8 30.5 30.4 30.5 30C30.5 29.6 30.6 29.2 30.9 28.9C31.1 28.6 31.5 28.4 31.8 28.3L34.1 27.6L34.8 25.3C34.9 24.9 35.1 24.6 35.4 24.4C35.7 24.2 36.1 24 36.5 24C36.9 24 37.3 24.1 37.6 24.4C37.9 24.6 38.1 25 38.2 25.3L38.9 27.6L41.2 28.3C41.6 28.4 41.9 28.6 42.1 28.9C42.3 29.2 42.5 29.6 42.5 30C42.5 30.4 42.4 30.8 42.1 31.1C41.8 31.4 41.5 31.6 41.2 31.7Z" fill="#1F2A2E"/>
<path d="M33.1 9.79961L35.1 9.19961L35.7 7.19961C35.7 6.89961 36 6.59961 36.3 6.39961C36.6 6.19961 36.9 6.09961 37.2 6.09961C37.5 6.09961 37.9 6.19961 38.1 6.39961C38.4 6.59961 38.6 6.89961 38.7 7.19961L39.3 9.19961L41.3 9.79961C41.6 9.79961 41.9 10.0996 42.1 10.3996C42.3 10.6996 42.4 10.9996 42.4 11.2996C42.4 11.5996 42.3 11.9996 42.1 12.1996C41.9 12.4996 41.6 12.6996 41.3 12.7996L39.3 13.3996L38.7 15.3996C38.7 15.6996 38.4 15.9996 38.1 16.1996C37.8 16.3996 37.5 16.4996 37.2 16.4996C36.9 16.4996 36.5 16.3996 36.3 16.1996C36 15.9996 35.8 15.6996 35.7 15.3996L35.1 13.3996L33.1 12.7996C32.8 12.7996 32.5 12.4996 32.3 12.1996C32.1 11.8996 32 11.5996 32 11.2996C32 10.9996 32.1 10.5996 32.3 10.3996C32.5 10.0996 32.8 9.89961 33.1 9.79961Z" fill="#1F2A2E"/>
</g>
<defs>
<clipPath id="clip0_4_347">
<rect width="36" height="36" fill="white" transform="translate(6.5 6)"/>
</clipPath>
</defs>
</svg>
