<svg width="49" height="48" viewBox="0 0 49 48" fill="none" xmlns="http://www.w3.org/2000/svg">
<g clip-path="url(#clip0_4_303)">
<path d="M43.2011 6.48276C42.5574 5.83908 41.5076 5.83908 40.8639 6.48276L33.0785 14.2682L32.5574 13.7548C29.7069 10.9732 25.2777 10.6437 22.044 12.9732C19.7911 14.6743 17.2777 16.0153 14.6111 16.9425L11.2241 17.9387C8.99421 18.59 7.14746 20.1533 6.13597 22.2452C5.1398 24.3065 5.05551 26.6897 5.91375 28.8123C9.18578 36.8506 17.0325 42.0766 25.7145 41.9923H27.2241C27.5613 41.9923 27.8908 41.8851 28.1666 41.6935C33.9827 37.9004 37.9597 31.8467 39.1321 25.0038C39.5459 22.3755 38.657 19.7088 36.7567 17.8544L35.4463 16.5747L43.2088 8.81226C43.8524 8.16092 43.8524 7.11877 43.2088 6.4751L43.2011 6.48276Z" fill="#1F2A2E"/>
<path d="M26.68 38.6898H25.6992C23.2854 38.6898 20.8946 38.2224 18.657 37.3029H18.6723C21.5306 35.8623 23.975 33.7243 25.7835 31.0806L26.634 29.8393C27.1474 29.0883 26.9559 28.0615 26.1973 27.5404C25.4463 27.027 24.4195 27.2186 23.8984 27.9772L23.0478 29.2186C21.5536 31.3948 19.5382 33.1573 17.1781 34.3374L15.1321 35.3642C13.4923 34.2147 12.067 32.7895 10.9099 31.1649C13.5919 30.2607 16.0363 28.7741 18.067 26.8124C18.7183 26.1764 18.7336 25.1266 18.09 24.4753C17.454 23.8239 16.4041 23.8086 15.7528 24.4523C13.9214 26.2224 11.6915 27.5251 9.24706 28.2454C9.14744 28.0232 9.04016 27.8086 8.94821 27.5787C8.4348 26.322 8.48844 24.9044 9.08614 23.686C9.6915 22.437 10.8026 21.5021 12.1359 21.1036L15.5229 20.1075C17.4923 19.4791 19.3697 18.6056 21.1245 17.5098L34.067 30.1151C32.3505 33.5404 29.8064 36.4829 26.6723 38.6822L26.68 38.6898Z" fill="#72DEFF"/>
<path d="M35.8678 24.4901C35.7452 25.2564 35.5766 26.015 35.362 26.7583L23.9597 15.6626C24.795 15.0649 25.7988 14.7354 26.8256 14.7354C28.0976 14.7354 29.3237 15.2334 30.2356 16.1223L34.4348 20.2219C35.5689 21.3331 36.1053 22.9269 35.8601 24.4978L35.8678 24.4901Z" fill="#72DEFF"/>
</g>
<defs>
<clipPath id="clip0_4_303">
<rect width="38.3678" height="36" fill="white" transform="translate(5.31604 6)"/>
</clipPath>
</defs>
</svg>
