<svg width="49" height="48" viewBox="0 0 49 48" fill="none" xmlns="http://www.w3.org/2000/svg">
<g clip-path="url(#clip0_4_332)">
<path d="M21.5 40.4998C21.5 41.3998 20.9 41.9998 20 41.9998H14C9.8 41.9998 6.5 38.6998 6.5 34.4998V20.5498C6.5 17.9998 7.7 15.7498 9.8 14.3998L20.3 7.3498C22.85 5.6998 26.15 5.6998 28.7 7.3498L39.5 14.6998C41 15.8998 42.05 17.3998 42.35 19.3498C42.5 20.0998 41.9 20.9998 41.15 21.1498C40.4 21.2998 39.5 20.6998 39.35 19.9498C39.2 18.7498 38.45 17.6998 37.4 17.0998L26.9 10.0498C25.4 8.9998 23.45 8.9998 21.8 10.0498L11.45 16.7998C10.25 17.6998 9.5 19.0498 9.5 20.5498V34.4998C9.5 37.0498 11.45 38.9998 14 38.9998H20C20.9 38.9998 21.5 39.5998 21.5 40.4998Z" fill="#1F2A2E"/>
<path d="M32 42C37.799 42 42.5 37.299 42.5 31.5C42.5 25.701 37.799 21 32 21C26.201 21 21.5 25.701 21.5 31.5C21.5 37.299 26.201 42 32 42Z" fill="#1F2A2E"/>
<path d="M32 39C36.1421 39 39.5 35.6421 39.5 31.5C39.5 27.3579 36.1421 24 32 24C27.8579 24 24.5 27.3579 24.5 31.5C24.5 35.6421 27.8579 39 32 39Z" fill="#1F2A2E"/>
<path d="M34.6999 29.7L31.4 32.85C31.25 33 30.8 33 30.65 32.85L29 31.2C28.4 30.6 27.5 30.6 26.9 31.2C26.3 31.8 26.3 32.7 26.9 33.3L28.55 34.95C29.3 35.55 30.1999 36 31.0999 36C31.9999 36 32.9 35.7 33.65 34.95L36.9499 31.8C37.5499 31.2 37.5499 30.3 36.9499 29.7C36.3499 29.1 35.45 29.1 34.85 29.7H34.6999Z" fill="#72DEFF"/>
</g>
<defs>
<clipPath id="clip0_4_332">
<rect width="36" height="36" fill="white" transform="translate(6.5 6)"/>
</clipPath>
</defs>
</svg>
