<svg width="20" height="20" viewBox="0 0 20 20" fill="none" xmlns="http://www.w3.org/2000/svg">
<path d="M14.1059 6.68811H11.6518C11.2339 6.6881 10.8329 6.85331 10.5363 7.14773C10.2397 7.44214 10.0715 7.84188 10.0684 8.25978L9.99677 17.8556M8.40177 11.6681H12.4043M2.08341 9.99967C2.08341 6.26801 2.08341 4.40134 3.24258 3.24217C4.40175 2.08301 6.26758 2.08301 10.0001 2.08301C13.7317 2.08301 15.5984 2.08301 16.7576 3.24217C17.9167 4.40134 17.9167 6.26717 17.9167 9.99967C17.9167 13.7313 17.9167 15.598 16.7576 16.7572C15.5984 17.9163 13.7326 17.9163 10.0001 17.9163C6.26841 17.9163 4.40175 17.9163 3.24258 16.7572C2.08341 15.598 2.08341 13.7322 2.08341 9.99967Z" stroke="#4D6974" stroke-width="1.25" stroke-linecap="round" stroke-linejoin="round"/>
</svg>
