<svg width="87" height="84" viewBox="0 0 87 84" fill="none" xmlns="http://www.w3.org/2000/svg">
<g clip-path="url(#clip0_4_436)">
<path d="M76.7999 25.4996C78.9999 30.5996 80.1999 36.1996 80.1999 41.7996C80.1999 55.7996 73.1999 68.1996 62.5999 75.6996C61.6999 76.3996 60.6999 76.9996 59.6999 77.4996C53.5999 81.0996 46.4999 83.0996 38.8999 83.0996C30.3999 83.0996 22.2999 80.5996 15.3999 75.6996C9.39985 71.5996 4.69985 65.9996 1.59985 59.4996C4.69985 56.9996 8.19985 54.8996 11.9999 53.4996C14.1999 58.4996 17.5999 62.6996 22.1999 65.8996C27.0999 69.2996 32.8999 71.0996 38.8999 71.0996C41.3999 71.0996 43.7999 70.7996 46.0999 70.1996C49.0999 69.3996 51.9999 68.1996 54.5999 66.4996C62.7999 61.2996 68.2999 52.0996 68.2999 41.6996C68.2999 39.3996 67.9999 37.0996 67.4999 34.8996L67.2999 34.1996L66.6999 34.5996C57.4999 41.3996 46.3999 44.9996 35.2999 44.9996C33.6999 44.9996 32.1999 44.7996 30.6999 44.4996C26.6999 43.6996 23.0999 41.6996 20.1999 38.9996C17.2999 36.2996 15.1999 32.7996 14.0999 28.9996C13.4999 27.0996 13.1999 24.9996 13.1999 22.9996C13.1999 16.7996 15.7999 11.0996 20.6999 6.89961C22.9999 4.79961 25.8999 3.29961 28.8999 2.19961C31.9999 1.09961 35.2999 0.599609 38.7999 0.599609C45.0999 0.599609 51.1999 1.99961 56.7999 4.69961C58.0999 5.29961 59.3999 5.99961 60.5999 6.79961C59.2999 10.5996 57.2999 14.1996 54.7999 17.2996C50.7999 14.5996 46.0999 13.0996 41.3999 12.6996C40.5999 12.6996 39.6999 12.5996 38.7999 12.5996C34.6999 12.5996 31.0999 13.7996 28.4999 15.9996C26.2999 17.8996 25.0999 20.2996 25.0999 22.9996C25.0999 26.7996 27.1999 29.9996 30.1999 31.7996C30.3999 31.8996 30.5999 31.9996 30.6999 32.0996C31.9999 32.6996 33.4999 33.0996 35.1999 33.0996C43.8999 33.0996 52.6999 30.1996 59.8999 24.7996C60.4999 24.3996 61.0999 23.8996 61.5999 23.3996C62.5999 22.5996 63.4999 21.7996 64.3999 20.8996C69.1999 16.1996 72.5999 10.3996 74.0999 4.29961L74.1999 4.09961C78.1999 4.99961 81.9999 6.49961 85.3999 8.49961C83.7999 14.3996 80.8999 19.9996 76.8999 24.9996L76.6999 25.1996L76.7999 25.4996Z" stroke="#BAB8B1"/>
</g>
<defs>
<clipPath id="clip0_4_436">
<rect width="85.1" height="83.7" fill="white" transform="translate(0.999878)"/>
</clipPath>
</defs>
</svg>
