<svg width="20" height="20" viewBox="0 0 20 20" fill="none" xmlns="http://www.w3.org/2000/svg">
<path d="M2.08341 10.0003C2.08341 6.26866 2.08341 4.40199 3.24258 3.24283C4.40175 2.08366 6.26758 2.08366 10.0001 2.08366C13.7317 2.08366 15.5984 2.08366 16.7576 3.24283C17.9167 4.40199 17.9167 6.26783 17.9167 10.0003C17.9167 13.732 17.9167 15.5987 16.7576 16.7578C15.5984 17.917 13.7326 17.917 10.0001 17.917C6.26841 17.917 4.40175 17.917 3.24258 16.7578C2.08341 15.5987 2.08341 13.7328 2.08341 10.0003Z" stroke="#4D6974" stroke-width="1.25" stroke-linecap="round" stroke-linejoin="round"/>
<path d="M14.5901 5.41699H14.5817M13.7501 10.0003C13.7501 10.9949 13.355 11.9487 12.6517 12.652C11.9485 13.3552 10.9946 13.7503 10.0001 13.7503C9.00552 13.7503 8.05169 13.3552 7.34843 12.652C6.64517 11.9487 6.25008 10.9949 6.25008 10.0003C6.25008 9.00576 6.64517 8.05194 7.34843 7.34868C8.05169 6.64541 9.00552 6.25033 10.0001 6.25033C10.9946 6.25033 11.9485 6.64541 12.6517 7.34868C13.355 8.05194 13.7501 9.00576 13.7501 10.0003Z" stroke="#4D6974" stroke-width="1.25" stroke-linecap="round" stroke-linejoin="round"/>
</svg>
